<svg xmlns="http://www.w3.org/2000/svg" viewBox="0 0 60 60"><path class="price-hand" d="M56.9,38.4c-1.3-2-4-2.5-6-1.2l-5.2,3.5c-0.5,0.3-0.6,1-0.3,1.5c0.3,0.5,1,0.6,1.5,0.3l5.2-3.5 c1-0.7,2.4-0.4,3,0.6c0.7,1,0.4,2.4-0.6,3L38.9,53.1c-0.2,0.1-0.4,0.2-0.6,0.3c-0.3,0.1-0.6,0.1-0.9,0.1l-15.1-4.3c0,0-0.1,0-0.1,0 c-1.1-0.2-2.2,0-3.2,0.7l-0.9,0.6l-5.8-8.7l7-4.7c1-0.7,2.2-0.9,3.4-0.7L39,41.4c0,0,0,0,0,0c0,0,0,0,0,0c1.1,0.4,1.8,1.6,1.4,2.7 c-0.2,0.5-0.5,1-1,1.3c-0.5,0.3-1.1,0.3-1.7,0.2c0,0,0,0,0,0c0,0,0,0,0,0l-8-2.1c-0.6-0.2-1.2,0.2-1.3,0.8c-0.1,0.3,0,0.6,0.1,0.9 c0.1,0.2,0.4,0.4,0.6,0.4l8,2.1c0,0,0,0,0,0c1.1,0.3,2.2,0.2,3.2-0.3c1-0.5,1.8-1.4,2.1-2.5c0.7-2.2-0.6-4.6-2.8-5.3c0,0,0,0,0,0 l-16.3-5.2c-0.1,0-0.1,0-0.2-0.1c-1.8-0.4-3.6,0-5.1,1l-7,4.7l-0.6-0.9c-0.3-0.5-1-0.6-1.5-0.3l-7.1,4.8c-0.5,0.3-0.6,1-0.3,1.5 l5.8,8.8c0.3,0.5,1,0.6,1.5,0.3c0.5-0.3,0.6-1,0.3-1.5l-5.2-7.9l5.4-3.6l8.3,12.4l-5.4,3.6l-0.3-0.4c-0.3-0.5-1-0.6-1.5-0.3 c-0.5,0.3-0.6,1-0.3,1.5L11,59c0.3,0.5,1,0.6,1.5,0.3l7.1-4.8c0.5-0.3,0.6-1,0.3-1.5l-0.6-1l0.9-0.6c0.5-0.3,1-0.4,1.6-0.3l15.1,4.3 c0,0,0,0,0,0c0,0,0,0,0.1,0c0,0,0,0,0.1,0c0,0,0,0,0,0c0.7,0.1,1.3,0.1,2-0.1c0.4-0.1,0.8-0.3,1.1-0.5l15.7-10.5 C57.7,43,58.3,40.4,56.9,38.4L56.9,38.4z" fill="#ab7f5c"/><path class="price-doller" d="M42.5,16.6c-0.2-0.1-1.1-0.6-2.5-0.9l-0.1,0v-5.4l0.1,0c0.6,0.1,1.1,0.4,1.5,0.7c0.6,0.5,1,1.2,1,1.9 c0,0.6,0.5,1.1,1.1,1.1h0c0.6,0,1.1-0.5,1.1-1.1c0-1.4-0.7-2.6-1.8-3.5c-0.8-0.6-1.8-1.1-2.8-1.2l-0.1,0l0-1.3 c0-0.6-0.5-1.1-1.1-1.1h0c-0.6,0-1.1,0.5-1.1,1.1l0,1.3l-0.1,0c-1,0.2-2,0.7-2.8,1.3c-1.1,1-1.7,2.2-1.7,3.6c0,1.3,0.6,2.6,1.7,3.5 l0,0c0.6,0.5,1.5,0.9,2.7,1.1l0.1,0v6.6l-0.1,0c-0.8-0.2-1.4-0.6-1.9-1.1c-0.5-0.5-0.7-1.2-0.8-1.8c0-0.6-0.5-1.1-1.1-1.1h0 c-0.3,0-0.6,0.1-0.8,0.3c-0.2,0.2-0.3,0.5-0.3,0.8c0,0.8,0.2,1.5,0.6,2.2c0.3,0.6,0.8,1.2,1.4,1.7c0.8,0.6,1.8,1.1,2.8,1.3l0.1,0 l0,1.4c0,0.6,0.5,1.1,1.1,1.1h0c0.3,0,0.6-0.1,0.8-0.3c0.2-0.2,0.3-0.5,0.3-0.8l0-1.3l0.1,0c1.3-0.2,2.6-0.7,3.5-1.5 c0.6-0.5,1-1.1,1.3-1.7c0.3-0.7,0.5-1.4,0.5-2.2C45.3,19.2,44.2,17.5,42.5,16.6L42.5,16.6z M40,24.3L40,24.3l-0.1-6.4l0.1,0 c0.9,0.2,1.4,0.5,1.4,0.5c1.1,0.6,1.7,1.6,1.7,2.6C43.2,22.6,41.9,23.9,40,24.3L40,24.3z M37.8,10.3v5l-0.1,0 c-0.6-0.1-1-0.3-1.3-0.5l0,0c-0.6-0.5-0.9-1.2-0.9-1.8c0-0.7,0.3-1.4,0.9-1.9C36.8,10.8,37.2,10.5,37.8,10.3L37.8,10.3z" fill="#ab7f5c"/><path class="price-circle" d="M54.6,10.7c-0.8-2-2.1-3.8-3.6-5.3c-1.5-1.5-3.3-2.8-5.3-3.6c-2.1-0.9-4.3-1.3-6.5-1.3s-4.5,0.4-6.5,1.3 c-2,0.8-3.8,2.1-5.3,3.6c-1.5,1.5-2.8,3.3-3.6,5.3c-0.9,2.1-1.3,4.3-1.3,6.5c0,2.3,0.4,4.5,1.3,6.5c0.8,2,2.1,3.8,3.6,5.3 c1.5,1.5,3.3,2.8,5.3,3.6c2.1,0.9,4.3,1.3,6.5,1.3s4.5-0.4,6.5-1.3c2-0.8,3.8-2.1,5.3-3.6c1.5-1.5,2.8-3.3,3.6-5.3 c0.9-2.1,1.3-4.3,1.3-6.5S55.5,12.8,54.6,10.7L54.6,10.7z M53.9,17.3c0,8.1-6.6,14.7-14.7,14.7s-14.7-6.6-14.7-14.7 c0-8.1,6.6-14.7,14.7-14.7S53.9,9.2,53.9,17.3z" fill="#ab7f5c"/></svg>