<svg xmlns="http://www.w3.org/2000/svg" x="0px" y="0px" viewBox="0 0 80 20" style="enable-background:new 0 0 80 20;" xml:space="preserve"><g>	<g>		<path d="M15.4,19.6c-0.1,0-0.3,0-0.4-0.1L2.1,10.6c-0.2-0.1-0.3-0.4-0.3-0.6c0-0.2,0.1-0.5,0.3-0.6l12.9-8.9   c0.3-0.2,0.8-0.1,1,0.2c0.2,0.3,0.1,0.8-0.2,1L3.8,10l12,8.2c0.3,0.2,0.4,0.7,0.2,1C15.8,19.5,15.6,19.6,15.4,19.6z"></path>	</g>	<g>		<path d="M77.5,10.8h-75c-0.4,0-0.8-0.3-0.8-0.7c0-0.4,0.3-0.8,0.8-0.8h75c0.4,0,0.8,0.3,0.8,0.8C78.2,10.4,77.9,10.8,77.5,10.8z"></path>	</g></g></svg>