<svg xmlns="http://www.w3.org/2000/svg" x="0px" y="0px" viewBox="0 0 100 100" style="enable-background:new 0 0 100 100;" xml:space="preserve"><path d="M68.3,97.5H31.7c-12.8,0-23.2-10.4-23.2-23.2V59.1c0-1.7,1.4-3.1,3.1-3.1s3.1,1.4,3.1,3.1v15.2c0,9.3,7.6,16.9,17,16.9h36.6 c9.3,0,17-7.6,17-16.9V59.1c0-1.7,1.4-3.1,3.1-3.1c1.7,0,3.1,1.4,3.1,3.1v15.2C91.6,87.1,81.1,97.5,68.3,97.5z" fill="#ab7f5c"/><path d="M58.9,26.3c-1.5,0-2.7-1.3-2.9-3l-1.6-14H39.7l-1.6,14c-0.2,1.9-1.7,3.2-3.3,2.9c-1.6-0.2-2.8-2-2.6-3.8l1.9-17 c0.2-1.7,1.5-3,2.9-3H57c1.5,0,2.8,1.3,2.9,3l1.9,17c0.2,1.9-0.9,3.6-2.6,3.8C59.2,26.2,59,26.2,58.9,26.3L58.9,26.3z" fill="#ab7f5c"/><path d="M50.5,61.9h-0.9c-5,0-9.7-2.3-13-6.3c-3.3-4-4.8-9.3-4.2-14.6c0.2-1.8,1.7-3,3.4-2.8c1.7,0.2,2.8,1.9,2.6,3.6 c-0.4,3.4,0.6,6.9,2.7,9.5c2.1,2.6,5.2,4.1,8.5,4.1h0.9c3.2,0,6.3-1.5,8.5-4.1c2.1-2.6,3.1-6.1,2.7-9.5c-0.2-1.8,1-3.4,2.6-3.6 c1.7-0.2,3.2,1,3.4,2.8c0.6,5.3-0.9,10.6-4.2,14.6C60.2,59.6,55.5,61.9,50.5,61.9z" fill="#ab7f5c"/><path d="M20.7,61.9c-6,0-11.7-3-15-8c-3.4-5-4.1-11.3-1.9-16.9l5-12.7C14,11.1,26.6,2.5,40.9,2.5c0.9,0,1.8,0.4,2.4,1.1 c0.6,0.7,0.9,1.6,0.8,2.5l-2.1,15.9c-0.2,1.7-1.8,3-3.6,2.7c-1.7-0.2-3-1.8-2.7-3.6l1.6-12C27.1,10.4,18.5,17,14.7,26.6l-5,12.8 c-1.5,3.7-1,7.7,1.2,11c2.2,3.3,5.8,5.2,9.8,5.2c5.9,0,11-4.4,11.7-10.3l0.5-3.9c0.2-1.7,1.8-2.9,3.6-2.7c1.7,0.2,3,1.8,2.7,3.6 l-0.5,3.9C37.6,55.1,29.8,61.9,20.7,61.9L20.7,61.9z" fill="#ab7f5c"/><path d="M79.3,61.8c-9.1,0-16.9-6.8-18.1-15.8l-0.5-3.9c-0.2-1.7,1-3.3,2.7-3.6c1.7-0.2,3.4,1,3.6,2.7l0.5,3.9 c0.8,5.9,5.8,10.3,11.7,10.3c4,0,7.5-1.9,9.8-5.2c2.2-3.3,2.7-7.3,1.2-11l-5-12.8c-2.1-5.2-5.6-9.7-10.3-12.9 c-3.7-2.5-7.8-4.1-12.2-4.6l1.6,12c0.2,1.7-1,3.3-2.7,3.6c-1.7,0.2-3.3-1-3.6-2.7L56,6.1c-0.1-0.9,0.2-1.8,0.8-2.5 c0.6-0.7,1.5-1.1,2.4-1.1c7,0,13.7,2.1,19.4,6c5.7,3.9,10.1,9.4,12.7,15.8l5,12.7c2.2,5.6,1.5,11.9-1.9,16.9 C91,58.9,85.3,61.9,79.3,61.8L79.3,61.8z" fill="#ab7f5c"/></svg>