<svg xmlns="http://www.w3.org/2000/svg" x="0px" y="0px" viewBox="0 0 80 20" style="enable-background:new 0 0 80 20;" xml:space="preserve"><g>	<g>		<path d="M64.6,0.4c0.1,0,0.3,0,0.4,0.1l12.9,8.9c0.2,0.1,0.3,0.4,0.3,0.6c0,0.2-0.1,0.5-0.3,0.6l-12.9,8.9c-0.3,0.2-0.8,0.1-1-0.2   c-0.2-0.3-0.2-0.8,0.2-1l12-8.3l-12-8.2c-0.3-0.2-0.4-0.7-0.2-1C64.2,0.5,64.4,0.4,64.6,0.4z"></path>	</g>	<g>		<path d="M2.5,9.2l75,0c0.4,0,0.8,0.3,0.8,0.7c0,0.4-0.3,0.8-0.7,0.8l-75,0c-0.4,0-0.8-0.3-0.8-0.7C1.8,9.6,2.1,9.2,2.5,9.2z"></path>	</g></g></svg>