<svg xmlns="http://www.w3.org/2000/svg" viewBox="0 0 100 100"><path class="dimond-icon-1" d="M44.4,28.8c0,0.8,0.6,1.4,1.4,1.4h31.6l18,17.7H77.7c-0.8,0-1.4,0.6-1.4,1.4s0.6,1.4,1.4,1.4h17.7l-38,39.1l16.1-39.9 c0.1-0.3,0.1-0.7,0-1.1l-7.1-15.9c-0.3-0.7-1.1-1-1.8-0.7c-0.7,0.3-1,1.1-0.7,1.8L70,47.9H38.8L45.1,34c0.3-0.7,0-1.5-0.7-1.8 c-0.7-0.3-1.5,0-1.8,0.7l-7.1,15.9c-0.2,0.3-0.2,0.7,0,1.1l16.1,39.9l-38-39.1h17.6c0.8,0,1.4-0.6,1.4-1.4c0-0.8-0.6-1.4-1.4-1.4 H13.6l18.4-18.1c0.5-0.5,0.5-1.4,0-1.9c-0.5-0.5-1.4-0.5-1.9,0L9.3,48.3c-0.5,0.5-0.5,1.4,0,1.9l44.2,45.4c0.3,0.3,0.6,0.4,1,0.4 c0.4,0,0.7-0.1,1-0.4l44.2-45.4c0.5-0.5,0.5-1.4,0-1.9L78.9,27.8c-0.3-0.3-0.6-0.4-1-0.4H45.8C45,27.4,44.4,28,44.4,28.8L44.4,28.8z  M54.4,89.6l-15.7-39h31.4L54.4,89.6L54.4,89.6z" fill="#ab7f5c"/><path class="star-3" d="M27.1,18.5c5.3,1.7,8.2,5.1,9.8,11.4c0.1,0.6,0.7,1,1.3,1c0.6,0,1.2-0.4,1.3-1c1.5-6.3,4.5-9.7,9.8-11.4 c0.6-0.2,1-0.7,1-1.3c0-0.6-0.4-1.1-1-1.3c-5.3-1.7-8.2-5.1-9.8-11.4c-0.1-0.6-0.7-1-1.3-1c-0.6,0-1.2,0.4-1.3,1 c-1.5,6.3-4.5,9.7-9.8,11.4c-0.6,0.2-1,0.7-1,1.3C26.1,17.8,26.5,18.3,27.1,18.5z M38.2,9.2c1.6,3.7,3.9,6.2,7.1,7.9 c-3.3,1.7-5.6,4.3-7.1,7.9c-1.6-3.7-3.9-6.2-7.1-7.9C34.3,15.5,36.6,12.9,38.2,9.2z" fill="#ab7f5c"/><path class="star-2" d="M1,29.1c3.8,1.2,5.8,3.6,6.9,8.1c0.1,0.6,0.7,1,1.3,1c0.6,0,1.2-0.4,1.3-1c1.1-4.5,3.2-6.9,6.9-8.1 c0.6-0.2,1-0.7,1-1.3c0-0.6-0.4-1.1-1-1.3c-3.8-1.2-5.8-3.6-6.9-8.1c-0.1-0.6-0.7-1-1.3-1c-0.6,0-1.2,0.4-1.3,1 c-1.1,4.5-3.2,6.9-6.9,8.1c-0.6,0.2-1,0.7-1,1.3C0,28.4,0.4,28.9,1,29.1z M9.2,22.9c1.1,2.2,2.5,3.8,4.5,5c-2,1.2-3.4,2.8-4.5,5 c-1.1-2.2-2.5-3.8-4.5-5C6.7,26.6,8.2,25,9.2,22.9z" fill="#ab7f5c"/><path class="star-1" d="M15.7,90.5c0.1,0.6,0.7,1,1.3,1c0.6,0,1.2-0.4,1.3-1c1-3.9,2.8-6,6.1-7.1c0.6-0.2,1-0.7,1-1.3 c0-0.6-0.4-1.1-1-1.3c-3.3-1.1-5.1-3.2-6.1-7.1c-0.1-0.6-0.7-1-1.3-1c-0.6,0-1.2,0.4-1.3,1c-1,3.9-2.8,6-6.1,7.1 c-0.6,0.2-1,0.7-1,1.3c0,0.6,0.4,1.1,1,1.3C13,84.5,14.8,86.6,15.7,90.5L15.7,90.5z M17.1,78.1c0.9,1.7,2.1,3.1,3.7,4.1 c-1.6,1-2.8,2.3-3.7,4.1c-0.9-1.7-2.1-3.1-3.7-4.1C15,81.2,16.2,79.9,17.1,78.1z" fill="#ab7f5c"/></svg>